HIERARCHY
ROOT Hips
{
	OFFSET 0.000000 103.266502 0.000000
	CHANNELS 6 Xposition Yposition Zposition Xrotation Yrotation Zrotation 
	JOINT Spine
	{
		OFFSET -0.002400 12.777504 0.315300
		CHANNELS 3 Xrotation Yrotation Zrotation
		JOINT Spine1
		{
			OFFSET -0.002067 5.816869 0.032633
			CHANNELS 3 Xrotation Yrotation Zrotation
			JOINT Spine1_split
			{
				OFFSET -0.002067 5.816869 0.032633
				CHANNELS 3 Xrotation Yrotation Zrotation
				JOINT Spine2
				{
					OFFSET -0.002067 5.816869 0.032633
					CHANNELS 3 Xrotation Yrotation Zrotation
					JOINT Neck
					{
						OFFSET -0.003700 21.199493 -0.826900
						CHANNELS 3 Xrotation Yrotation Zrotation
						JOINT Head
						{
							OFFSET 0.000000 20.442200 4.834800
							CHANNELS 3 Xrotation Yrotation Zrotation
							JOINT HeadTop_End
							{
								OFFSET 0.000000 34.668396 4.968400
								CHANNELS 3 Xrotation Yrotation Zrotation
								End Site
								{
									OFFSET 0.000000 0.000000 0.000000
								}
							}
						}
					}
					JOINT LeftShoulder
					{
						OFFSET 3.288150 8.794197 -1.372250
						CHANNELS 3 Xrotation Yrotation Zrotation
						JOINT LeftShoulder_split
						{
							OFFSET 3.288150 8.794197 -1.372250
							CHANNELS 3 Xrotation Yrotation Zrotation
							JOINT LeftArm
							{
								OFFSET 11.953299 -2.279007 -0.146200
								CHANNELS 3 Xrotation Yrotation Zrotation
								JOINT LeftForeArm
								{
									OFFSET 18.448900 0.000000 0.000000
									CHANNELS 3 Xrotation Yrotation Zrotation
									JOINT LeftHand
									{
										OFFSET 29.527798 0.000000 0.000000
										CHANNELS 3 Xrotation Yrotation Zrotation
										JOINT LeftHandThumb1
										{
											OFFSET 10.739754 -2.369614 9.225399
											CHANNELS 3 Xrotation Yrotation Zrotation
											JOINT LeftHandThumb2
											{
												OFFSET 4.926170 -2.844131 2.844125
												CHANNELS 3 Xrotation Yrotation Zrotation
												JOINT LeftHandThumb3
												{
													OFFSET 4.614891 -2.664413 2.664409
													CHANNELS 3 Xrotation Yrotation Zrotation
													JOINT LeftHandThumb4
													{
														OFFSET 4.432465 -2.559082 2.559083
														CHANNELS 3 Xrotation Yrotation Zrotation
														End Site
														{
															OFFSET 0.000000 0.000000 0.000000
														}
													}
												}
											}
										}
										JOINT LeftHandIndex1
										{
											OFFSET 26.467674 0.187653 6.405298
											CHANNELS 3 Xrotation Yrotation Zrotation
											JOINT LeftHandIndex2
											{
												OFFSET 8.792900 0.000000 0.000000
												CHANNELS 3 Xrotation Yrotation Zrotation
												JOINT LeftHandIndex3
												{
													OFFSET 10.075203 0.000000 0.000000
													CHANNELS 3 Xrotation Yrotation Zrotation
													End Site
													{
														OFFSET 0.000000 0.000000 0.000000
													}
												}
											}
										}
										JOINT LeftHandMiddle1
										{
											OFFSET 25.764404 0.000000 0.000000
											CHANNELS 3 Xrotation Yrotation Zrotation
											JOINT LeftHandMiddle2
											{
												OFFSET 9.393974 0.000000 0.000000
												CHANNELS 3 Xrotation Yrotation Zrotation
												JOINT LeftHandMiddle3
												{
													OFFSET 10.771950 0.000000 0.000000
													CHANNELS 3 Xrotation Yrotation Zrotation
													End Site
													{
														OFFSET 0.000000 0.000000 0.000000
													}
												}
											}
										}
										JOINT LeftHandRing1
										{
											OFFSET 24.660927 0.144547 -6.225808
											CHANNELS 3 Xrotation Yrotation Zrotation
											JOINT LeftHandRing2
											{
												OFFSET 9.393799 0.000000 0.000000
												CHANNELS 3 Xrotation Yrotation Zrotation
												JOINT LeftHandRing3
												{
													OFFSET 9.928497 0.000000 0.000000
													CHANNELS 3 Xrotation Yrotation Zrotation
													End Site
													{
														OFFSET 0.000000 0.000000 0.000000
													}
												}
											}
										}
										JOINT LeftHandPinky1
										{
											OFFSET 23.655350 0.125290 -12.815412
											CHANNELS 3 Xrotation Yrotation Zrotation
											JOINT LeftHandPinky2
											{
												OFFSET 8.425102 0.000000 0.000000
												CHANNELS 3 Xrotation Yrotation Zrotation
												JOINT LeftHandPinky3
												{
													OFFSET 8.147003 0.000000 0.000000
													CHANNELS 3 Xrotation Yrotation Zrotation
													End Site
													{
														OFFSET 0.000000 0.000000 0.000000
													}
												}
											}
										}
									}
								}
							}
						}
					}
					JOINT RightShoulder
					{
						OFFSET -3.249400 8.794197 -1.372250
						CHANNELS 3 Xrotation Yrotation Zrotation
						JOINT RightShoulder_split
						{
							OFFSET -3.249400 8.794197 -1.372250
							CHANNELS 3 Xrotation Yrotation Zrotation
							JOINT RightArm
							{
								OFFSET -11.953299 -2.279007 -0.146200
								CHANNELS 3 Xrotation Yrotation Zrotation
								JOINT RightForeArm
								{
									OFFSET -18.448900 0.000000 0.000000
									CHANNELS 3 Xrotation Yrotation Zrotation
									JOINT RightHand
									{
										OFFSET -29.527802 0.000000 0.000000
										CHANNELS 3 Xrotation Yrotation Zrotation
										JOINT RightHandThumb1
										{
											OFFSET -10.739754 -2.369614 9.225399
											CHANNELS 3 Xrotation Yrotation Zrotation
											JOINT RightHandThumb2
											{
												OFFSET -4.926170 -2.844131 2.844125
												CHANNELS 3 Xrotation Yrotation Zrotation
												JOINT RightHandThumb3
												{
													OFFSET -4.614891 -2.664413 2.664409
													CHANNELS 3 Xrotation Yrotation Zrotation
													JOINT RightHandThumb4
													{
														OFFSET -4.432465 -2.559082 2.559083
														CHANNELS 3 Xrotation Yrotation Zrotation
														End Site
														{
															OFFSET 0.000000 0.000000 0.000000
														}
													}
												}
											}
										}
										JOINT RightHandIndex1
										{
											OFFSET -26.467674 0.187653 6.405298
											CHANNELS 3 Xrotation Yrotation Zrotation
											JOINT RightHandIndex2
											{
												OFFSET -8.792900 0.000000 0.000000
												CHANNELS 3 Xrotation Yrotation Zrotation
												JOINT RightHandIndex3
												{
													OFFSET -10.075203 0.000000 0.000000
													CHANNELS 3 Xrotation Yrotation Zrotation
													End Site
													{
														OFFSET 0.000000 0.000000 0.000000
													}
												}
											}
										}
										JOINT RightHandMiddle1
										{
											OFFSET -25.764404 0.000000 0.000000
											CHANNELS 3 Xrotation Yrotation Zrotation
											JOINT RightHandMiddle2
											{
												OFFSET -9.393974 0.000000 0.000000
												CHANNELS 3 Xrotation Yrotation Zrotation
												JOINT RightHandMiddle3
												{
													OFFSET -10.771950 0.000000 0.000000
													CHANNELS 3 Xrotation Yrotation Zrotation
													End Site
													{
														OFFSET 0.000000 0.000000 0.000000
													}
												}
											}
										}
										JOINT RightHandRing1
										{
											OFFSET -24.660927 0.144547 -6.225808
											CHANNELS 3 Xrotation Yrotation Zrotation
											JOINT RightHandRing2
											{
												OFFSET -9.393799 0.000000 0.000000
												CHANNELS 3 Xrotation Yrotation Zrotation
												JOINT RightHandRing3
												{
													OFFSET -9.928497 0.000000 0.000000
													CHANNELS 3 Xrotation Yrotation Zrotation
													End Site
													{
														OFFSET 0.000000 0.000000 0.000000
													}
												}
											}
										}
										JOINT RightHandPinky1
										{
											OFFSET -23.655350 0.125290 -12.815412
											CHANNELS 3 Xrotation Yrotation Zrotation
											JOINT RightHandPinky2
											{
												OFFSET -8.425102 0.000000 0.000000
												CHANNELS 3 Xrotation Yrotation Zrotation
												JOINT RightHandPinky3
												{
													OFFSET -8.147003 0.000000 0.000000
													CHANNELS 3 Xrotation Yrotation Zrotation
													End Site
													{
														OFFSET 0.000000 0.000000 0.000000
													}
												}
											}
										}
									}
								}
							}
						}
					}
				}
			}
		}
	}
	JOINT LeftUpLeg
	{
		OFFSET 11.394100 -6.187798 -0.413800
		CHANNELS 3 Xrotation Yrotation Zrotation
		JOINT LeftLeg
		{
			OFFSET 0.430247 -32.302673 3.732800
			CHANNELS 3 Xrotation Yrotation Zrotation
			JOINT LeftFoot
			{
				OFFSET -0.430247 -48.264931 -6.423300
				CHANNELS 3 Xrotation Yrotation Zrotation
				JOINT LeftToeBase
				{
					OFFSET 4.230900 -16.068199 23.438400
					CHANNELS 3 Xrotation Yrotation Zrotation
					JOINT LeftToe_End
					{
						OFFSET 4.510700 0.695400 19.974600
						CHANNELS 3 Xrotation Yrotation Zrotation
						End Site
						{
							OFFSET 0.000000 0.000000 0.000000
						}
					}
				}
			}
		}
	}
	JOINT RightUpLeg
	{
		OFFSET -11.333700 -6.187798 -0.413800
		CHANNELS 3 Xrotation Yrotation Zrotation
		JOINT RightLeg
		{
			OFFSET -0.430392 -32.302628 3.733000
			CHANNELS 3 Xrotation Yrotation Zrotation
			JOINT RightFoot
			{
				OFFSET 0.430392 -48.264973 -6.423500
				CHANNELS 3 Xrotation Yrotation Zrotation
				JOINT RightToeBase
				{
					OFFSET -4.230900 -16.068199 23.438400
					CHANNELS 3 Xrotation Yrotation Zrotation
					JOINT RightToe_End
					{
						OFFSET -4.510700 0.695400 19.974600
						CHANNELS 3 Xrotation Yrotation Zrotation
						End Site
						{
							OFFSET 0.000000 0.000000 0.000000
						}
					}
				}
			}
		}
	}
}
MOTION
Frames: 4
Frame Time: 0.016667
3.283791 51.982353 -3.662798 1.132491 -29.476296 8.759457 3.592582 -5.190035 -4.045616 2.855675 -4.198786 -2.072993 0.000000 0.000000 0.000000 2.773302 -4.260257 -2.035174 0.447421 2.821358 2.164896 0.278336 15.546820 4.247278 0.000000 -0.000000 -0.000001 1.530509 -0.690787 -2.366977 0.000000 0.000000 0.000000 -3.234535 -12.111223 -50.675366 -0.009511 -87.973349 -0.009415 -53.085098 20.313594 41.451858 -1.540060 3.690181 6.142342 3.939060 7.948709 0.746822 -0.579466 1.575002 2.538705 -0.000000 -0.000000 -0.000001 1.016532 3.605835 -31.478699 1.016534 3.605840 -31.478703 0.000000 0.000001 -0.000001 1.299280 4.030455 -35.722887 1.301549 4.033591 -35.755009 -0.000003 0.000001 0.000001 1.751609 4.592881 -41.733692 1.751610 4.592885 -41.733699 0.000003 -0.000000 -0.000000 4.911447 7.752500 -44.887891 2.046411 0.814392 -45.446965 -0.000003 0.000000 0.000002 5.585474 17.928714 2.373356 0.000000 0.000000 0.000000 -33.414658 -16.065392 41.084619 -0.000521 92.810352 0.000468 44.885374 -28.255036 9.382486 -1.849247 -3.581785 -6.586139 4.637198 -8.634122 -0.225402 -1.273755 0.137310 -2.094870 -0.000001 0.000000 0.000001 0.081186 -1.061616 8.746200 0.001256 -0.132366 1.086259 0.000001 0.000002 0.000001 0.493226 -2.576610 21.670006 0.002548 -0.188681 1.548418 -0.000001 -0.000000 0.000003 0.682828 -3.009783 25.559229 0.002551 -0.188687 1.548411 -0.000000 -0.000000 -0.000000 1.013755 -3.620338 31.277134 0.002551 -0.188681 1.548424 0.000002 -0.000001 0.000004 -83.910998 -20.768198 46.669224 75.927286 10.461913 -5.693439 33.623020 -0.455817 -11.511436 -0.002541 -0.000002 -0.004177 0.000000 0.000003 -0.000000 -44.570697 4.364147 -15.518386 115.256000 -2.913670 -1.990186 48.220046 3.957482 8.016600 52.402024 -3.994280 -10.656119 -0.000000 -0.000001 -0.000000 
3.254156 51.982948 -3.672303 1.195659 -29.480855 8.821106 3.586056 -5.134485 -4.175707 2.844910 -4.152762 -2.149813 0.000000 0.000000 0.000000 2.768605 -4.212011 -2.111295 0.463159 2.837758 2.357656 0.012653 15.814936 4.562046 -0.000000 -0.000000 -0.000000 1.530167 -0.744402 -1.917308 0.000000 0.000000 0.000000 -3.271998 -12.105439 -51.033029 0.004353 -88.077373 0.004545 -52.890103 20.116169 41.398716 -1.540059 3.690184 6.142344 3.939061 7.948715 0.746818 -0.579466 1.574998 2.538707 -0.000001 -0.000000 0.000001 1.016534 3.605839 -31.478699 1.016534 3.605840 -31.478709 0.000002 0.000001 -0.000001 1.299281 4.030455 -35.722880 1.301550 4.033591 -35.755006 -0.000001 -0.000000 -0.000001 1.751610 4.592884 -41.733692 1.751609 4.592884 -41.733696 -0.000002 -0.000002 0.000001 4.911449 7.752504 -44.887891 2.046409 0.814389 -45.446955 0.000000 0.000000 0.000001 5.560244 17.956426 2.651595 0.000000 0.000000 0.000000 -32.494430 -15.150555 39.610285 -0.000250 94.692909 0.000276 40.622072 -28.211599 8.823192 -1.849245 -3.581785 -6.586137 4.637198 -8.634123 -0.225403 -1.273752 0.137310 -2.094871 -0.000001 0.000000 -0.000001 0.081136 -1.061261 8.743208 0.000152 -0.046015 0.377548 0.000000 -0.000001 0.000000 0.505649 -2.607625 21.944571 0.000307 -0.065736 0.539486 -0.000000 0.000004 0.000004 0.699982 -3.045333 25.883919 0.000306 -0.065747 0.539483 0.000001 0.000000 -0.000002 1.039062 -3.661589 31.675658 0.000315 -0.065746 0.539476 0.000001 0.000000 -0.000003 -83.899612 -20.705237 46.771114 75.852154 10.447327 -5.751094 33.672754 -0.382210 -11.481250 -0.002502 -0.000018 -0.004122 0.000000 0.000001 -0.000000 -44.695638 4.359975 -15.476217 115.315860 -2.922492 -1.986026 48.127695 3.904322 7.898351 52.557944 -3.965324 -10.557183 -0.000000 0.000002 0.000001 
3.222157 51.982086 -3.682571 1.264243 -29.478379 8.893463 3.573177 -5.087730 -4.305249 2.829096 -4.112352 -2.227857 0.000000 0.000000 0.000000 2.758118 -4.169732 -2.188754 0.482735 2.858637 2.531980 -0.284939 16.079338 4.861551 -0.000000 -0.000000 -0.000000 1.512197 -0.744091 -1.544892 0.000000 0.000000 0.000000 -3.279722 -12.155392 -51.329838 0.003504 -88.114256 0.003436 -52.731608 19.892613 41.299155 -1.540058 3.690181 6.142343 3.939060 7.948709 0.746820 -0.579467 1.574994 2.538709 -0.000001 0.000002 -0.000001 1.016532 3.605838 -31.478696 1.016532 3.605840 -31.478713 0.000002 -0.000000 -0.000001 1.299280 4.030453 -35.722880 1.301551 4.033590 -35.755009 -0.000002 0.000000 0.000000 1.751609 4.592882 -41.733692 1.751611 4.592886 -41.733696 0.000003 -0.000001 0.000001 4.911449 7.752505 -44.887887 2.046412 0.814394 -45.446962 0.000001 -0.000003 0.000002 5.540488 17.992964 2.918233 0.000000 0.000000 0.000000 -31.912908 -14.467698 38.297656 -0.000258 96.455235 0.000278 36.803101 -27.544608 9.079539 -1.849248 -3.581785 -6.586139 4.637200 -8.634120 -0.225401 -1.273753 0.137311 -2.094871 0.000001 -0.000000 0.000000 0.081082 -1.060912 8.740250 0.000002 -0.003758 0.030854 0.000001 -0.000002 -0.000001 0.515000 -2.630687 22.149267 0.000003 -0.003840 0.031507 0.000001 -0.000001 -0.000002 0.712892 -3.071767 26.125998 0.000004 -0.003848 0.031516 -0.000000 0.000001 0.000002 1.058123 -3.692233 31.972764 0.000001 -0.003841 0.031522 -0.000001 -0.000001 -0.000001 -83.899175 -20.632214 46.867860 75.779139 10.437742 -5.808677 33.714476 -0.338987 -11.445715 -0.002460 0.000006 -0.004079 0.000000 -0.000003 -0.000000 -44.814196 4.352569 -15.443049 115.361280 -2.912363 -1.982348 48.057983 3.865453 7.815172 52.705998 -3.935367 -10.444867 -0.000000 0.000000 0.000000 
3.185905 51.980858 -3.693708 1.331237 -29.462178 8.967325 3.556547 -5.053164 -4.433519 2.810493 -4.080799 -2.306021 0.000000 0.000000 0.000000 2.744170 -4.136567 -2.266377 0.495815 2.875332 2.696922 -0.557784 16.320425 5.115395 0.000001 -0.000000 0.000000 1.480361 -0.701464 -1.238073 0.000000 0.000000 0.000000 -3.264494 -12.231492 -51.554312 -0.000985 -88.164703 -0.001140 -52.644083 19.692578 41.206156 -1.540058 3.690184 6.142343 3.939060 7.948712 0.746822 -0.579468 1.575002 2.538707 -0.000000 -0.000002 -0.000000 1.016531 3.605844 -31.478699 1.016533 3.605837 -31.478709 0.000001 0.000001 -0.000001 1.299282 4.030458 -35.722883 1.301553 4.033592 -35.755006 -0.000003 0.000000 -0.000000 1.751611 4.592886 -41.733692 1.751611 4.592885 -41.733699 -0.000001 -0.000001 0.000000 4.911449 7.752505 -44.887887 2.046410 0.814393 -45.446965 0.000000 0.000000 0.000000 5.526706 18.040669 3.182612 0.000000 0.000000 0.000000 -31.850938 -14.060289 37.299547 0.000583 98.091659 -0.000575 34.080253 -26.275738 10.628201 -1.849248 -3.581784 -6.586137 4.637197 -8.634120 -0.225402 -1.273753 0.137308 -2.094870 0.000000 -0.000001 -0.000000 0.081030 -1.060582 8.737467 0.000002 0.003403 0.000006 0.000001 -0.000001 -0.000001 0.521050 -2.645490 22.280705 0.000005 0.008579 0.000038 0.000001 0.000002 0.000003 0.721248 -3.088731 26.281444 0.000003 0.008589 -0.000016 -0.000001 -0.000001 -0.000002 1.070440 -3.711854 32.163559 0.000006 0.008601 -0.000040 -0.000000 0.000002 0.000001 -83.896033 -20.562558 46.959460 75.707873 10.433709 -5.878466 33.748364 -0.329023 -11.406039 -0.002446 -0.000003 -0.004029 0.000000 0.000001 0.000000 -44.911260 4.328541 -15.419787 115.382987 -2.893388 -1.981669 48.016233 3.841301 7.765983 52.832046 -3.906312 -10.328623 0.000000 -0.000001 -0.000000 
